<svg width="100%" viewBox="0 0 900 300" xmlns="http://www.w3.org/2000/svg" role="img" aria-label="Siddhanth Thakuri, Software Engineer">
<defs>
  <radialGradient id="space" cx="50%" cy="35%" r="75%">
    <stop offset="0%" stop-color="#0c1224"/><stop offset="60%" stop-color="#070a16"/><stop offset="100%" stop-color="#03040a"/>
  </radialGradient>
  <radialGradient id="nebA" cx="50%" cy="50%" r="50%">
    <stop offset="0%" stop-color="#6E56CF" stop-opacity="0.32"/><stop offset="100%" stop-color="#6E56CF" stop-opacity="0"/>
  </radialGradient>
  <radialGradient id="nebB" cx="50%" cy="50%" r="50%">
    <stop offset="0%" stop-color="#38bdf8" stop-opacity="0.22"/><stop offset="100%" stop-color="#38bdf8" stop-opacity="0"/>
  </radialGradient>
  <linearGradient id="planet" x1="0" y1="0" x2="0" y2="1">
    <stop offset="0%" stop-color="#1d4166"/><stop offset="8%" stop-color="#12304f"/><stop offset="40%" stop-color="#0a1a2e"/><stop offset="100%" stop-color="#040a14"/>
  </linearGradient>
  <radialGradient id="sunrise" cx="50%" cy="50%" r="50%">
    <stop offset="0%" stop-color="#fff7e0" stop-opacity="0.95"/>
    <stop offset="18%" stop-color="#f4c46d" stop-opacity="0.55"/>
    <stop offset="55%" stop-color="#d97706" stop-opacity="0.12"/>
    <stop offset="100%" stop-color="#d97706" stop-opacity="0"/>
  </radialGradient>
  <linearGradient id="streak" x1="0" y1="0" x2="1" y2="0">
    <stop offset="0%" stop-color="#f4c46d" stop-opacity="0"/><stop offset="50%" stop-color="#fff2d0" stop-opacity="0.85"/><stop offset="100%" stop-color="#f4c46d" stop-opacity="0"/>
  </linearGradient>
  <linearGradient id="name" x1="0" y1="0" x2="1" y2="0">
    <stop offset="0%" stop-color="#a78bfa"><animate attributeName="stop-color" values="#a78bfa;#38bdf8;#e0e7ff;#a78bfa" dur="9s" repeatCount="indefinite"/></stop>
    <stop offset="50%" stop-color="#e0e7ff"><animate attributeName="stop-color" values="#e0e7ff;#a78bfa;#38bdf8;#e0e7ff" dur="9s" repeatCount="indefinite"/></stop>
    <stop offset="100%" stop-color="#38bdf8"><animate attributeName="stop-color" values="#38bdf8;#e0e7ff;#a78bfa;#38bdf8" dur="9s" repeatCount="indefinite"/></stop>
  </linearGradient>
  <filter id="glow" x="-20%" y="-50%" width="140%" height="200%"><feGaussianBlur stdDeviation="3.2" result="b"/><feMerge><feMergeNode in="b"/><feMergeNode in="SourceGraphic"/></feMerge></filter>
  <path id="orbit" d="M 60,138 a 390,86 0 1,0 780,0 a 390,86 0 1,0 -780,0"/>
  <path id="ascent" d="M 138,288 C 142,215 175,130 318,52"/>
  <path id="timeline" d="M 205,285 A 1232 1232 0 0 1 695,285"/>
</defs>
<rect width="900" height="300" fill="url(#space)"/>
<ellipse cx="190" cy="95" rx="250" ry="125" fill="url(#nebA)"></ellipse>
<ellipse cx="720" cy="125" rx="230" ry="120" fill="url(#nebB)"></ellipse>
<g fill="#ffffff">
<circle cx="293.6" cy="49.4" r="0.45" opacity="0.84"><animate attributeName="opacity" values="0.84;0.21;0.84" dur="4.4s" begin="4.5s" repeatCount="indefinite"/></circle>
<circle cx="196.7" cy="30.8" r="0.55" opacity="0.40"/>
<circle cx="740.2" cy="41.7" r="1.25" opacity="0.70"><animate attributeName="opacity" values="0.70;0.17;0.70" dur="4.4s" begin="0.2s" repeatCount="indefinite"/></circle>
<circle cx="202.3" cy="166.3" r="0.85" opacity="0.44"><animate attributeName="opacity" values="0.44;0.11;0.44" dur="3.4s" begin="4.1s" repeatCount="indefinite"/></circle>
<circle cx="166.5" cy="173.5" r="0.7" opacity="0.41"/>
<circle cx="507.2" cy="184.3" r="1.0" opacity="0.61"/>
<circle cx="526.0" cy="136.5" r="0.55" opacity="0.77"/>
<circle cx="516.1" cy="157.3" r="1.25" opacity="0.62"/>
<circle cx="71.0" cy="153.4" r="0.7" opacity="0.44"/>
<circle cx="40.8" cy="198.4" r="1.0" opacity="0.82"/>
<circle cx="308.0" cy="106.9" r="0.85" opacity="0.39"><animate attributeName="opacity" values="0.39;0.10;0.39" dur="3.2s" begin="3.5s" repeatCount="indefinite"/></circle>
<circle cx="63.7" cy="216.6" r="1.0" opacity="0.95"/>
<circle cx="258.7" cy="117.1" r="0.45" opacity="0.91"/>
<circle cx="548.5" cy="148.2" r="0.7" opacity="0.43"/>
<circle cx="77.6" cy="135.4" r="0.55" opacity="0.84"/>
<circle cx="253.2" cy="125.6" r="0.85" opacity="0.92"/>
<circle cx="162.5" cy="72.8" r="0.85" opacity="0.85"/>
<circle cx="256.4" cy="48.0" r="1.0" opacity="0.69"/>
<circle cx="619.2" cy="154.5" r="1.25" opacity="0.79"/>
<circle cx="779.4" cy="280.1" r="1.0" opacity="0.59"/>
<circle cx="97.9" cy="188.7" r="1.6" opacity="0.39"/>
<circle cx="150.1" cy="103.9" r="1.6" opacity="0.35"/>
<circle cx="96.1" cy="110.7" r="1.6" opacity="0.87"/>
<circle cx="137.9" cy="78.7" r="0.7" opacity="0.63"><animate attributeName="opacity" values="0.63;0.16;0.63" dur="4.1s" begin="4.9s" repeatCount="indefinite"/></circle>
<circle cx="432.6" cy="95.8" r="1.25" opacity="0.56"/>
<circle cx="742.0" cy="52.5" r="1.6" opacity="0.92"/>
<circle cx="136.2" cy="162.4" r="1.6" opacity="0.67"/>
<circle cx="772.6" cy="206.5" r="0.7" opacity="0.89"/>
<circle cx="203.8" cy="162.0" r="1.25" opacity="0.48"/>
<circle cx="880.6" cy="251.6" r="0.85" opacity="0.79"/>
<circle cx="465.7" cy="108.4" r="1.6" opacity="0.37"/>
<circle cx="236.1" cy="205.4" r="0.85" opacity="0.84"/>
<circle cx="77.5" cy="35.4" r="0.7" opacity="0.47"/>
<circle cx="805.5" cy="248.0" r="1.25" opacity="0.56"/>
<circle cx="747.2" cy="40.5" r="1.25" opacity="0.80"/>
<circle cx="164.5" cy="233.3" r="1.25" opacity="0.59"/>
<circle cx="846.8" cy="214.7" r="0.55" opacity="0.37"/>
<circle cx="419.2" cy="194.9" r="1.0" opacity="0.94"/>
<circle cx="317.2" cy="164.0" r="0.45" opacity="0.83"/>
<circle cx="97.3" cy="221.9" r="0.55" opacity="0.85"/>
<circle cx="229.6" cy="90.4" r="1.0" opacity="0.55"/>
<circle cx="746.8" cy="23.5" r="0.85" opacity="0.75"/>
<circle cx="785.8" cy="43.7" r="1.0" opacity="0.36"/>
<circle cx="168.6" cy="7.1" r="0.55" opacity="0.43"/>
<circle cx="112.9" cy="23.8" r="1.0" opacity="0.68"/>
<circle cx="100.2" cy="167.4" r="0.7" opacity="0.38"><animate attributeName="opacity" values="0.38;0.09;0.38" dur="3.9s" begin="0.1s" repeatCount="indefinite"/></circle>
<circle cx="799.9" cy="24.3" r="1.0" opacity="0.71"/>
<circle cx="252.1" cy="152.3" r="1.0" opacity="0.91"/>
<circle cx="784.4" cy="277.3" r="1.0" opacity="0.89"/>
<circle cx="403.4" cy="126.0" r="0.7" opacity="0.39"/>
<circle cx="70.9" cy="198.8" r="0.55" opacity="0.91"/>
<circle cx="331.2" cy="78.9" r="0.85" opacity="0.48"/>
<circle cx="359.7" cy="146.3" r="0.55" opacity="0.45"/>
<circle cx="463.9" cy="103.7" r="0.7" opacity="0.41"/>
<circle cx="306.1" cy="138.1" r="0.85" opacity="0.55"/>
<circle cx="460.9" cy="24.5" r="0.55" opacity="0.93"><animate attributeName="opacity" values="0.93;0.23;0.93" dur="3.2s" begin="0.2s" repeatCount="indefinite"/></circle>
<circle cx="697.7" cy="83.9" r="0.85" opacity="0.86"/>
<circle cx="846.0" cy="122.9" r="1.0" opacity="0.69"/>
<circle cx="85.4" cy="22.6" r="0.85" opacity="0.89"/>
<circle cx="20.9" cy="31.5" r="1.0" opacity="0.86"><animate attributeName="opacity" values="0.86;0.22;0.86" dur="5.5s" begin="2.3s" repeatCount="indefinite"/></circle>
<circle cx="307.2" cy="165.3" r="0.7" opacity="0.72"><animate attributeName="opacity" values="0.72;0.18;0.72" dur="4.9s" begin="4.7s" repeatCount="indefinite"/></circle>
<circle cx="866.7" cy="81.4" r="0.7" opacity="0.73"/>
<circle cx="188.8" cy="134.4" r="0.7" opacity="0.56"><animate attributeName="opacity" values="0.56;0.14;0.56" dur="3.2s" begin="0.1s" repeatCount="indefinite"/></circle>
<circle cx="657.0" cy="164.7" r="0.85" opacity="0.50"/>
<circle cx="590.6" cy="193.2" r="1.0" opacity="0.85"/>
<circle cx="455.9" cy="204.1" r="0.7" opacity="0.47"/>
<circle cx="653.2" cy="46.2" r="0.45" opacity="0.85"><animate attributeName="opacity" values="0.85;0.21;0.85" dur="4.6s" begin="4.4s" repeatCount="indefinite"/></circle>
<circle cx="388.5" cy="22.0" r="0.85" opacity="0.87"/>
<circle cx="256.4" cy="75.8" r="0.85" opacity="0.46"/>
<circle cx="9.2" cy="110.9" r="1.0" opacity="0.54"><animate attributeName="opacity" values="0.54;0.14;0.54" dur="5.6s" begin="1.1s" repeatCount="indefinite"/></circle>
<circle cx="168.5" cy="102.6" r="0.7" opacity="0.65"/>
<circle cx="454.2" cy="7.4" r="0.45" opacity="0.44"/>
<circle cx="355.9" cy="92.3" r="0.45" opacity="0.70"/>
<circle cx="672.5" cy="195.4" r="1.0" opacity="0.58"/>
<circle cx="880.4" cy="49.0" r="1.25" opacity="0.44"/>
<circle cx="640.9" cy="153.7" r="1.25" opacity="0.84"><animate attributeName="opacity" values="0.84;0.21;0.84" dur="4.2s" begin="2.5s" repeatCount="indefinite"/></circle>
<circle cx="747.4" cy="237.7" r="1.0" opacity="0.83"/>
<circle cx="855.0" cy="191.2" r="0.45" opacity="0.43"/>
<circle cx="99.2" cy="246.7" r="1.25" opacity="0.36"/>
<circle cx="223.2" cy="82.0" r="0.45" opacity="0.80"/>
<circle cx="481.3" cy="195.9" r="1.6" opacity="0.79"/>
<circle cx="72.1" cy="82.5" r="0.55" opacity="0.49"/>
<circle cx="74.1" cy="268.2" r="0.45" opacity="0.72"/>
<circle cx="74.8" cy="48.5" r="1.25" opacity="0.77"/>
<circle cx="124.5" cy="144.9" r="1.25" opacity="0.41"/>
<circle cx="440.8" cy="210.2" r="0.85" opacity="0.63"><animate attributeName="opacity" values="0.63;0.16;0.63" dur="5.6s" begin="1.0s" repeatCount="indefinite"/></circle>
<circle cx="874.6" cy="275.6" r="1.6" opacity="0.63"/>
<circle cx="865.7" cy="135.4" r="0.55" opacity="0.90"/>
<circle cx="72.3" cy="32.0" r="0.7" opacity="0.92"><animate attributeName="opacity" values="0.92;0.23;0.92" dur="5.3s" begin="2.5s" repeatCount="indefinite"/></circle>
<circle cx="793.5" cy="208.6" r="0.85" opacity="0.59"/>
<circle cx="849.6" cy="202.3" r="1.25" opacity="0.43"/>
<circle cx="286.7" cy="248.0" r="1.6" opacity="0.80"/>
<circle cx="112.6" cy="272.8" r="1.25" opacity="0.52"/>
<circle cx="529.2" cy="109.9" r="0.7" opacity="0.86"/>
<circle cx="51.8" cy="196.6" r="0.55" opacity="0.50"/>
<circle cx="459.7" cy="60.7" r="0.85" opacity="0.88"/>
<circle cx="841.3" cy="164.2" r="0.45" opacity="0.91"/>
<circle cx="552.0" cy="45.9" r="0.85" opacity="0.38"/>
<circle cx="119.1" cy="142.0" r="0.7" opacity="0.50"/>
<circle cx="585.7" cy="123.0" r="0.85" opacity="0.68"/>
<circle cx="154.6" cy="52.6" r="0.85" opacity="0.68"/>
<circle cx="301.6" cy="224.7" r="1.0" opacity="0.47"><animate attributeName="opacity" values="0.47;0.12;0.47" dur="3.5s" begin="0.5s" repeatCount="indefinite"/></circle>
<circle cx="218.3" cy="80.4" r="0.45" opacity="0.80"/>
<circle cx="373.5" cy="157.0" r="0.7" opacity="0.80"/>
<circle cx="516.0" cy="109.7" r="1.0" opacity="0.73"/>
<circle cx="197.8" cy="84.1" r="0.85" opacity="0.74"/>
<circle cx="283.1" cy="240.5" r="0.55" opacity="0.37"/>
<circle cx="801.4" cy="142.3" r="0.45" opacity="0.39"/>
<circle cx="830.2" cy="158.0" r="0.85" opacity="0.50"><animate attributeName="opacity" values="0.50;0.12;0.50" dur="2.8s" begin="2.6s" repeatCount="indefinite"/></circle>
<circle cx="646.9" cy="192.4" r="0.85" opacity="0.40"/>
<circle cx="7.2" cy="42.2" r="0.45" opacity="0.74"/>
<circle cx="119.6" cy="78.5" r="1.25" opacity="0.81"><animate attributeName="opacity" values="0.81;0.20;0.81" dur="3.3s" begin="4.7s" repeatCount="indefinite"/></circle>
<circle cx="176.2" cy="81.1" r="0.45" opacity="0.36"/>
<circle cx="428.1" cy="73.6" r="0.85" opacity="0.77"/>
<circle cx="25.3" cy="149.5" r="0.85" opacity="0.40"/>
<circle cx="382.8" cy="112.6" r="1.25" opacity="0.55"/>
<circle cx="612.1" cy="63.0" r="1.25" opacity="0.86"><animate attributeName="opacity" values="0.86;0.21;0.86" dur="4.1s" begin="1.0s" repeatCount="indefinite"/></circle>
<circle cx="686.1" cy="61.9" r="0.7" opacity="0.81"/>
<circle cx="851.3" cy="148.8" r="0.55" opacity="0.64"/>
<circle cx="56.1" cy="177.3" r="0.45" opacity="0.48"/>
<circle cx="132.0" cy="20.9" r="1.6" opacity="0.59"/>
<circle cx="790.6" cy="217.0" r="0.55" opacity="0.55"/>
<circle cx="837.1" cy="220.9" r="1.6" opacity="0.75"/>
<circle cx="338.0" cy="101.5" r="0.45" opacity="0.40"><animate attributeName="opacity" values="0.40;0.10;0.40" dur="3.8s" begin="4.4s" repeatCount="indefinite"/></circle>
<circle cx="504.3" cy="224.5" r="0.7" opacity="0.84"/>
<circle cx="49.7" cy="142.4" r="0.85" opacity="0.47"/>
<circle cx="802.5" cy="14.7" r="1.25" opacity="0.81"><animate attributeName="opacity" values="0.81;0.20;0.81" dur="2.3s" begin="0.3s" repeatCount="indefinite"/></circle>
<circle cx="823.0" cy="80.0" r="1.0" opacity="0.55"/>
<circle cx="856.4" cy="183.7" r="1.25" opacity="0.76"/>
<circle cx="270.1" cy="213.8" r="1.25" opacity="0.92"><animate attributeName="opacity" values="0.92;0.23;0.92" dur="5.3s" begin="0.5s" repeatCount="indefinite"/></circle>
<circle cx="641.4" cy="140.1" r="0.7" opacity="0.90"/>
<circle cx="123.8" cy="149.0" r="1.6" opacity="0.91"/>
<circle cx="620.6" cy="49.6" r="0.7" opacity="0.63"/>
<circle cx="535.0" cy="153.4" r="0.55" opacity="0.50"><animate attributeName="opacity" values="0.50;0.12;0.50" dur="2.3s" begin="2.8s" repeatCount="indefinite"/></circle>
<circle cx="241.2" cy="30.2" r="0.85" opacity="0.94"/>
<circle cx="159.8" cy="44.3" r="1.25" opacity="0.49"/>
<circle cx="693.2" cy="224.8" r="0.7" opacity="0.53"/>
<circle cx="337.2" cy="218.6" r="0.55" opacity="0.46"/>
<circle cx="173.2" cy="24.7" r="0.55" opacity="0.65"/>
<circle cx="723.9" cy="194.2" r="0.45" opacity="0.35"/>
<circle cx="211.2" cy="135.1" r="0.7" opacity="0.49"><animate attributeName="opacity" values="0.49;0.12;0.49" dur="4.5s" begin="4.1s" repeatCount="indefinite"/></circle>
<circle cx="178.4" cy="27.6" r="0.55" opacity="0.62"/>
<circle cx="99.9" cy="177.7" r="0.55" opacity="0.37"/>
<circle cx="45.2" cy="294.0" r="1.6" opacity="0.79"/>
<circle cx="729.5" cy="241.8" r="0.7" opacity="0.46"/>
<circle cx="186.6" cy="235.0" r="0.45" opacity="0.59"/>
<circle cx="595.7" cy="50.5" r="1.25" opacity="0.45"/>
<circle cx="369.9" cy="87.6" r="0.45" opacity="0.54"/>
<circle cx="323.2" cy="125.9" r="0.7" opacity="0.74"/>
<circle cx="391.5" cy="51.1" r="0.45" opacity="0.59"/>
</g>
<g transform="rotate(-4 450 138)">
<use href="#orbit" fill="none" stroke="#a78bfa" stroke-opacity="0.28" stroke-width="1" stroke-dasharray="3 6"/>
<circle r="2.2" fill="#f4c46d" opacity="0.55"><animateMotion dur="16s" begin="-0.00s" repeatCount="indefinite"><mpath href="#orbit"/></animateMotion></circle>
<circle r="1.7" fill="#f4c46d" opacity="0.35"><animateMotion dur="16s" begin="-0.18s" repeatCount="indefinite"><mpath href="#orbit"/></animateMotion></circle>
<circle r="1.3" fill="#f4c46d" opacity="0.2"><animateMotion dur="16s" begin="-0.36s" repeatCount="indefinite"><mpath href="#orbit"/></animateMotion></circle>
<circle r="1.0" fill="#f4c46d" opacity="0.1"><animateMotion dur="16s" begin="-0.54s" repeatCount="indefinite"><mpath href="#orbit"/></animateMotion></circle>
<g><animateMotion dur="16s" repeatCount="indefinite" rotate="auto"><mpath href="#orbit"/></animateMotion>
  <rect x="-3" y="-2.2" width="6" height="4.4" rx="0.8" fill="#e8e1d3"/>
  <rect x="-12" y="-1.6" width="8" height="3.2" fill="#38bdf8" opacity="0.9"/>
  <rect x="4" y="-1.6" width="8" height="3.2" fill="#38bdf8" opacity="0.9"/>
  <circle cx="0" cy="-3.4" r="1" fill="#ef4444"><animate attributeName="opacity" values="1;0.1;1" dur="1.1s" repeatCount="indefinite"/></circle>
</g>
</g>
<filter id="atmo" filterUnits="userSpaceOnUse" x="0" y="150" width="900" height="150"><feGaussianBlur stdDeviation="7"/></filter>
<g filter="url(#atmo)">
<circle cx="450" cy="1495" r="1284" fill="none" stroke="#38bdf8" stroke-width="30" stroke-opacity="0.1"/>
<circle cx="450" cy="1495" r="1270" fill="none" stroke="#38bdf8" stroke-width="18" stroke-opacity="0.16"/>
<circle cx="450" cy="1495" r="1260" fill="none" stroke="#38bdf8" stroke-width="10" stroke-opacity="0.26"/>
</g>
<circle cx="450" cy="1495" r="1253" fill="none" stroke="#38bdf8" stroke-width="2.5" stroke-opacity="0.4"/>
<circle cx="450" cy="1495" r="1250" fill="url(#planet)"/>
<circle cx="450" cy="1495" r="1250" fill="none" stroke="#8fd3ff" stroke-width="1.2" stroke-opacity="0.75"><animate attributeName="stroke-opacity" values="0.75;0.45;0.75" dur="6s" repeatCount="indefinite"/></circle>
<ellipse cx="450" cy="245" rx="210" ry="46" fill="url(#sunrise)"><animate attributeName="opacity" values="0.85;1;0.85" dur="7s" repeatCount="indefinite"/></ellipse>
<rect x="170" y="244.1" width="560" height="1.8" fill="url(#streak)" opacity="0.8"><animate attributeName="opacity" values="0.55;0.95;0.55" dur="7s" repeatCount="indefinite"/></rect>
<circle cx="424.2" cy="261.4" r="0.5" fill="#f4c46d" opacity="0.27"/>
<circle cx="381.8" cy="278.6" r="0.6" fill="#f4c46d" opacity="0.51"/>
<circle cx="233.3" cy="287.1" r="0.5" fill="#f4c46d" opacity="0.43"/>
<circle cx="730.8" cy="291.1" r="0.6" fill="#f4c46d" opacity="0.51"/>
<circle cx="319.1" cy="293.7" r="0.5" fill="#f4c46d" opacity="0.59"/>
<circle cx="438.6" cy="257.1" r="0.8" fill="#f4c46d" opacity="0.39"/>
<circle cx="664.2" cy="279.6" r="0.5" fill="#f4c46d" opacity="0.47"/>
<circle cx="525.7" cy="264.7" r="0.6" fill="#f4c46d" opacity="0.31"/>
<circle cx="264.0" cy="284.1" r="0.8" fill="#f4c46d" opacity="0.30"/>
<circle cx="357.1" cy="264.1" r="0.8" fill="#f4c46d" opacity="0.54"/>
<circle cx="560.8" cy="272.2" r="0.6" fill="#f4c46d" opacity="0.46"/>
<circle cx="483.0" cy="279.3" r="0.6" fill="#f4c46d" opacity="0.48"/>
<circle cx="323.4" cy="270.9" r="0.6" fill="#f4c46d" opacity="0.48"/>
<circle cx="414.9" cy="272.2" r="0.5" fill="#f4c46d" opacity="0.25"/>
<circle cx="414.9" cy="279.0" r="0.6" fill="#f4c46d" opacity="0.54"/>
<circle cx="654.9" cy="287.1" r="0.5" fill="#f4c46d" opacity="0.29"/>
<circle cx="404.2" cy="259.3" r="0.6" fill="#f4c46d" opacity="0.43"/>
<circle cx="553.7" cy="260.9" r="0.5" fill="#f4c46d" opacity="0.28"/>
<circle cx="604.1" cy="294.1" r="0.8" fill="#f4c46d" opacity="0.28"/>
<circle cx="550.8" cy="288.9" r="0.5" fill="#f4c46d" opacity="0.55"/>
<circle cx="657.9" cy="279.8" r="0.6" fill="#f4c46d" opacity="0.35"/>
<circle cx="572.8" cy="288.5" r="0.5" fill="#f4c46d" opacity="0.27"/>
<circle cx="351.6" cy="287.6" r="0.5" fill="#f4c46d" opacity="0.36"/>
<circle cx="524.9" cy="291.6" r="0.6" fill="#f4c46d" opacity="0.30"/>
<circle cx="451.5" cy="290.0" r="0.5" fill="#f4c46d" opacity="0.46"/>
<circle cx="526.5" cy="266.4" r="0.6" fill="#f4c46d" opacity="0.26"/>
<circle cx="240.2" cy="278.9" r="0.6" fill="#f4c46d" opacity="0.49"/>
<circle cx="711.0" cy="289.0" r="0.6" fill="#f4c46d" opacity="0.29"/>
<circle cx="470.3" cy="279.3" r="0.6" fill="#f4c46d" opacity="0.59"/>
<text font-family="ui-monospace, 'SFMono-Regular', Menlo, Consolas, monospace" font-size="8.5" letter-spacing="1.6" fill="#8fd3ff" fill-opacity="0.62"><textPath href="#timeline" startOffset="50%" text-anchor="middle">2017 AERONAUTICAL ENG  ·  2021 ACCENTURE  ·  2023 MSc CS  ·  2026 DBM</textPath></text>
<circle r="1.9" fill="#fff7e0" opacity="0"><animateMotion dur="9s" begin="1.50s" repeatCount="indefinite" keyPoints="0;1;1" keyTimes="0;0.5;1" calcMode="linear"><mpath href="#ascent"/></animateMotion><animate attributeName="opacity" values="0;1.0;1.0;0;0" keyTimes="0;0.04;0.42;0.5;1" dur="9s" begin="1.50s" repeatCount="indefinite"/></circle>
<circle r="2.6" fill="#f4c46d" opacity="0"><animateMotion dur="9s" begin="1.43s" repeatCount="indefinite" keyPoints="0;1;1" keyTimes="0;0.5;1" calcMode="linear"><mpath href="#ascent"/></animateMotion><animate attributeName="opacity" values="0;0.55;0.55;0;0" keyTimes="0;0.04;0.42;0.5;1" dur="9s" begin="1.43s" repeatCount="indefinite"/></circle>
<circle r="3.4" fill="#d97706" opacity="0"><animateMotion dur="9s" begin="1.36s" repeatCount="indefinite" keyPoints="0;1;1" keyTimes="0;0.5;1" calcMode="linear"><mpath href="#ascent"/></animateMotion><animate attributeName="opacity" values="0;0.3;0.3;0;0" keyTimes="0;0.04;0.42;0.5;1" dur="9s" begin="1.36s" repeatCount="indefinite"/></circle>
<circle r="4.4" fill="#d97706" opacity="0"><animateMotion dur="9s" begin="1.29s" repeatCount="indefinite" keyPoints="0;1;1" keyTimes="0;0.5;1" calcMode="linear"><mpath href="#ascent"/></animateMotion><animate attributeName="opacity" values="0;0.14;0.14;0;0" keyTimes="0;0.04;0.42;0.5;1" dur="9s" begin="1.29s" repeatCount="indefinite"/></circle>
<circle r="5.6" fill="#d97706" opacity="0"><animateMotion dur="9s" begin="1.22s" repeatCount="indefinite" keyPoints="0;1;1" keyTimes="0;0.5;1" calcMode="linear"><mpath href="#ascent"/></animateMotion><animate attributeName="opacity" values="0;0.07;0.07;0;0" keyTimes="0;0.04;0.42;0.5;1" dur="9s" begin="1.22s" repeatCount="indefinite"/></circle>
<text x="450" y="128" text-anchor="middle" font-family="'Segoe UI', 'SF Pro Display', 'Helvetica Neue', Arial, sans-serif" font-size="46" font-weight="800" letter-spacing="9" fill="#8b7cf6" opacity="0.55" filter="url(#glow)">SIDDHANTH THAKURI</text>
<text x="450" y="128" text-anchor="middle" font-family="'Segoe UI', 'SF Pro Display', 'Helvetica Neue', Arial, sans-serif" font-size="46" font-weight="800" letter-spacing="9" fill="url(#name)">SIDDHANTH THAKURI</text>
<text x="450" y="160" text-anchor="middle" font-family="ui-monospace, 'SFMono-Regular', Menlo, Consolas, monospace" font-size="11" letter-spacing="4.5" fill="#9aa4b8">SOFTWARE ENGINEER  ·  AI PRODUCTS  ·  SYDNEY</text>
<rect x="352" y="178" width="196" height="26" rx="13" fill="#070a16" fill-opacity="0.75" stroke="#a78bfa" stroke-opacity="0.55"/>
<circle cx="372" cy="191" r="4" fill="#22c55e"/>
<circle cx="372" cy="191" r="4" fill="none" stroke="#22c55e"><animate attributeName="r" values="4;10" dur="1.8s" repeatCount="indefinite"/><animate attributeName="opacity" values="0.6;0" dur="1.8s" repeatCount="indefinite"/></circle>
<text x="460" y="195" text-anchor="middle" font-family="ui-monospace, 'SFMono-Regular', Menlo, Consolas, monospace" font-size="10.5" letter-spacing="2.2" fill="#c4b5fd">CURRENTLY BUILDING</text>
<path d="M 16,40 L 16,16 L 40,16" fill="none" stroke="#a78bfa" stroke-width="1.6" stroke-opacity="0.8"/>
<path d="M 884,40 L 884,16 L 860,16" fill="none" stroke="#38bdf8" stroke-width="1.6" stroke-opacity="0.8"/>
<path d="M 16,260 L 16,284 L 40,284" fill="none" stroke="#38bdf8" stroke-width="1.6" stroke-opacity="0.8"/>
<path d="M 884,260 L 884,284 L 860,284" fill="none" stroke="#a78bfa" stroke-width="1.6" stroke-opacity="0.8"/>
<g font-family="ui-monospace, 'SFMono-Regular', Menlo, Consolas, monospace" font-size="8.5" letter-spacing="1.4">
<text x="34" y="36" fill="#a78bfa" fill-opacity="0.75">MISSION // SIDDHANTH-THAKURI</text>
<text x="34" y="50" fill="#9aa4b8" fill-opacity="0.6">33.86°S · 151.21°E</text>
<text x="34" y="64" fill="#22c55e" fill-opacity="0.7">STATUS NOMINAL<animate attributeName="fill-opacity" values="0.7;0.35;0.7" dur="3s" repeatCount="indefinite"/></text>
<text x="866" y="36" text-anchor="end" fill="#38bdf8" fill-opacity="0.75">ARC  AERO → SOFTWARE</text>
<text x="866" y="50" text-anchor="end" fill="#9aa4b8" fill-opacity="0.6">SHIPPED 14 · LIVE 11</text>
</g>
</svg>